<svg width="43" height="43" viewBox="0 0 43 43" fill="none" xmlns="http://www.w3.org/2000/svg">
<path d="M37.883 12.3167C39.6418 15.3031 40.5348 18.72 40.4621 22.1851C40.3893 25.6502 39.3536 29.0267 37.471 31.9366C35.5884 34.8465 32.933 37.1751 29.8022 38.6617C26.6714 40.1483 23.1886 40.7343 19.7437 40.354M5.71566 31.282C3.95684 28.2956 3.06383 24.8786 3.13659 21.4135C3.20936 17.9485 4.24502 14.572 6.12766 11.6621C8.01031 8.75213 10.6656 6.42355 13.7965 4.93695C16.9273 3.45035 20.4101 2.86439 23.855 3.24466" stroke="#6ABECD" stroke-width="4.66667" stroke-linecap="round" stroke-linejoin="round"/>
<path d="M31.6992 11.8995C33.5216 13.7219 36.4764 13.7219 38.2988 11.8995C40.1213 10.077 40.1213 7.12228 38.2988 5.29983C36.4764 3.47738 33.5216 3.47738 31.6992 5.29983C29.8767 7.12228 29.8767 10.077 31.6992 11.8995Z" fill="#6ABECD" stroke="#6ABECD" stroke-width="4.66667" stroke-linecap="round" stroke-linejoin="round"/>
<path d="M5.29984 38.2988C7.12229 40.1213 10.0771 40.1213 11.8995 38.2988C13.7219 36.4764 13.7219 33.5216 11.8995 31.6992C10.0771 29.8767 7.12229 29.8767 5.29984 31.6992C3.47739 33.5216 3.47739 36.4764 5.29984 38.2988Z" fill="#6ABECD" stroke="#6ABECD" stroke-width="4.66667" stroke-linecap="round" stroke-linejoin="round"/>
<path d="M18.4995 25.0992C20.3219 26.9216 23.2767 26.9216 25.0991 25.0992C26.9216 23.2767 26.9216 20.3219 25.0991 18.4995C23.2767 16.677 20.3219 16.677 18.4995 18.4995C16.677 20.3219 16.677 23.2767 18.4995 25.0992Z" fill="#6ABECD" stroke="#6ABECD" stroke-width="4.66667" stroke-linecap="round" stroke-linejoin="round"/>
</svg>
